<mxfile host="65bd71144e" pages="3">
    <diagram id="99MPed9GYGWadDpUkXvj" name="第 1 页">
        <mxGraphModel dx="828" dy="635" grid="1" gridSize="10" guides="1" tooltips="1" connect="1" arrows="1" fold="1" page="1" pageScale="1" pageWidth="827" pageHeight="1169" background="#164A24" math="0" shadow="0">
            <root>
                <mxCell id="0"/>
                <mxCell id="1" parent="0"/>
                <mxCell id="dcmSDJax66JHcvxmSxYX-4" style="edgeStyle=orthogonalEdgeStyle;rounded=0;orthogonalLoop=1;jettySize=auto;html=1;exitX=1;exitY=0.5;exitDx=0;exitDy=0;entryX=0;entryY=0.5;entryDx=0;entryDy=0;fillColor=#008a00;strokeColor=#005700;" parent="1" source="dcmSDJax66JHcvxmSxYX-1" target="dcmSDJax66JHcvxmSxYX-3" edge="1">
                    <mxGeometry relative="1" as="geometry"/>
                </mxCell>
                <mxCell id="dcmSDJax66JHcvxmSxYX-1" value="kafka(ods_db)" style="shape=process;whiteSpace=wrap;html=1;backgroundOutline=1;fillColor=#1ba1e2;strokeColor=#006EAF;fontColor=#ffffff;" parent="1" vertex="1">
                    <mxGeometry x="30" y="280" width="120" height="60" as="geometry"/>
                </mxCell>
                <mxCell id="dcmSDJax66JHcvxmSxYX-2" value="hbase+phoenix&lt;br&gt;" style="shape=cylinder;whiteSpace=wrap;html=1;boundedLbl=1;backgroundOutline=1;fillColor=#0050ef;strokeColor=#001DBC;fontColor=#ffffff;" parent="1" vertex="1">
                    <mxGeometry x="600" y="250" width="90" height="100" as="geometry"/>
                </mxCell>
                <mxCell id="dcmSDJax66JHcvxmSxYX-5" style="rounded=0;orthogonalLoop=1;jettySize=auto;html=1;exitX=1;exitY=0.5;exitDx=0;exitDy=0;entryX=0.111;entryY=0.6;entryDx=0;entryDy=0;entryPerimeter=0;" parent="1" source="dcmSDJax66JHcvxmSxYX-3" target="dcmSDJax66JHcvxmSxYX-2" edge="1">
                    <mxGeometry relative="1" as="geometry"/>
                </mxCell>
                <mxCell id="dcmSDJax66JHcvxmSxYX-3" value="flink app" style="rounded=1;whiteSpace=wrap;html=1;fillColor=#008a00;strokeColor=#005700;fontColor=#ffffff;" parent="1" vertex="1">
                    <mxGeometry x="260" y="280" width="120" height="60" as="geometry"/>
                </mxCell>
                <mxCell id="dcmSDJax66JHcvxmSxYX-6" value="&lt;font color=&quot;#bacfff&quot;&gt;假如3个维度表:&amp;nbsp; &amp;nbsp;3个侧输出流&lt;/font&gt;" style="text;html=1;align=center;verticalAlign=middle;resizable=0;points=[];autosize=1;" parent="1" vertex="1">
                    <mxGeometry x="250" y="150" width="170" height="20" as="geometry"/>
                </mxCell>
                <mxCell id="dcmSDJax66JHcvxmSxYX-7" value="&lt;font style=&quot;font-size: 18px&quot;&gt;但是我们1个流, 通过sql语句决定数据写到那个表&lt;/font&gt;" style="rounded=1;whiteSpace=wrap;html=1;fillColor=#60a917;strokeColor=#2D7600;fontColor=#ffffff;" parent="1" vertex="1">
                    <mxGeometry x="210" y="180" width="360" height="60" as="geometry"/>
                </mxCell>
                <mxCell id="dcmSDJax66JHcvxmSxYX-8" value="&lt;div style=&quot;text-align: left&quot;&gt;&lt;span style=&quot;font-size: 18px&quot;&gt;问题:&amp;nbsp;&lt;/span&gt;&lt;/div&gt;&lt;span style=&quot;font-size: 18px&quot;&gt;&lt;div style=&quot;text-align: left&quot;&gt;&lt;span&gt;1. Phoenix中的表如何创建&amp;nbsp; ：&lt;/span&gt;&lt;/div&gt;&lt;div style=&quot;text-align: left&quot;&gt;&lt;span&gt;答：动态创建&lt;/span&gt;&lt;/div&gt;&lt;div style=&quot;text-align: left&quot;&gt;&lt;span&gt;2. 如何知道会有哪些维度表：&lt;/span&gt;&lt;/div&gt;&lt;div style=&quot;text-align: left&quot;&gt;&lt;div&gt;答：connect + 广播状态&lt;/div&gt;&lt;div&gt;数据流: ods_db中的数据&lt;/div&gt;&lt;div&gt;广播流: 哪些维度需要写的的相关的配置&lt;/div&gt;&lt;div&gt;2.1广播流中的数据如何来?&amp;nbsp; 配置数据&lt;/div&gt;&lt;div&gt;&lt;div&gt;&lt;span style=&quot;background-color: initial;&quot;&gt;&lt;span style=&quot;white-space: pre;&quot;&gt;&#9;&lt;/span&gt;1.文件中?&amp;nbsp; 不太方便, 实时监控文件的比较复杂&lt;/span&gt;&lt;br&gt;&lt;/div&gt;&lt;div&gt;&amp;nbsp; &amp;nbsp; &amp;nbsp; &amp;nbsp; 2. 存入数据库mysql中: 程序启动读取所有配置, 然后再需要监控变化&lt;/div&gt;&lt;div&gt;&lt;span style=&quot;white-space: pre;&quot;&gt;&#9;&lt;/span&gt;&lt;span style=&quot;white-space: pre;&quot;&gt;&#9;&lt;/span&gt;（使用flink-cdc读取变化数据，如果是jdbc只能读取全量）&lt;br&gt;&lt;/div&gt;&lt;div&gt;&amp;nbsp; &amp;nbsp; &amp;nbsp; &amp;nbsp; 3. zookeeper:&amp;nbsp; &amp;nbsp;放到znode然后写个程序监控里面的创建与变化&lt;/div&gt;&lt;/div&gt;&lt;/div&gt;&lt;div style=&quot;text-align: left&quot;&gt;&lt;span&gt;3. 维度表的创建和数据写入该如何完成&lt;/span&gt;&lt;/div&gt;&lt;div style=&quot;text-align: left&quot;&gt;&lt;span&gt;&lt;br&gt;&lt;/span&gt;&lt;/div&gt;&lt;div style=&quot;text-align: left&quot;&gt;&lt;span&gt;&lt;br&gt;&lt;/span&gt;&lt;/div&gt;&lt;div style=&quot;text-align: left&quot;&gt;&lt;span style=&quot;background-color: initial;&quot;&gt;&amp;nbsp; &amp;nbsp; &amp;nbsp;&amp;nbsp;&lt;/span&gt;&lt;/div&gt;&lt;div style=&quot;text-align: left&quot;&gt;&lt;span&gt;&amp;nbsp;&lt;/span&gt;&lt;/div&gt;&lt;/span&gt;" style="rounded=1;whiteSpace=wrap;html=1;fillColor=#60a917;strokeColor=#2D7600;fontColor=#ffffff;labelBackgroundColor=none;labelBorderColor=none;" parent="1" vertex="1">
                    <mxGeometry x="20" y="370" width="740" height="390" as="geometry"/>
                </mxCell>
                <mxCell id="2" value="MySQL" style="rounded=0;whiteSpace=wrap;html=1;" parent="1" vertex="1">
                    <mxGeometry x="20" y="850" width="120" height="60" as="geometry"/>
                </mxCell>
                <mxCell id="3" value="" style="endArrow=classic;html=1;exitX=1;exitY=0.5;exitDx=0;exitDy=0;fillColor=#1ba1e2;strokeColor=#006EAF;" parent="1" source="2" edge="1">
                    <mxGeometry width="50" height="50" relative="1" as="geometry">
                        <mxPoint x="240" y="870" as="sourcePoint"/>
                        <mxPoint x="280" y="880" as="targetPoint"/>
                    </mxGeometry>
                </mxCell>
                <mxCell id="6" value="" style="edgeStyle=none;html=1;fillColor=#1ba1e2;strokeColor=#006EAF;" parent="1" source="4" target="5" edge="1">
                    <mxGeometry relative="1" as="geometry"/>
                </mxCell>
                <mxCell id="4" value="Maxwell" style="rounded=1;whiteSpace=wrap;html=1;" parent="1" vertex="1">
                    <mxGeometry x="275" y="850" width="120" height="60" as="geometry"/>
                </mxCell>
                <mxCell id="8" value="" style="edgeStyle=none;html=1;fillColor=#1ba1e2;strokeColor=#006EAF;" parent="1" source="5" target="7" edge="1">
                    <mxGeometry relative="1" as="geometry"/>
                </mxCell>
                <mxCell id="5" value="Kafka" style="whiteSpace=wrap;html=1;rounded=1;" parent="1" vertex="1">
                    <mxGeometry x="475" y="850" width="120" height="60" as="geometry"/>
                </mxCell>
                <mxCell id="7" value="flink" style="whiteSpace=wrap;html=1;rounded=1;" parent="1" vertex="1">
                    <mxGeometry x="675" y="850" width="120" height="60" as="geometry"/>
                </mxCell>
                <mxCell id="9" value="&lt;font style=&quot;font-size: 18px;&quot;&gt;这是旧的方案，现在是flink-cdc代替&lt;/font&gt;" style="rounded=0;whiteSpace=wrap;html=1;fillColor=#1ba1e2;fontColor=#ffffff;strokeColor=#006EAF;" parent="1" vertex="1">
                    <mxGeometry x="230" y="930" width="375" height="50" as="geometry"/>
                </mxCell>
            </root>
        </mxGraphModel>
    </diagram>
    <diagram id="JrRrKMyUbmA4Yw0E_3zf" name="第 2 页">
        <mxGraphModel dx="828" dy="635" grid="1" gridSize="10" guides="1" tooltips="1" connect="1" arrows="1" fold="1" page="1" pageScale="1" pageWidth="827" pageHeight="1169" math="0" shadow="0">
            <root>
                <mxCell id="nKwFnIR-qAnywtTfi2So-0"/>
                <mxCell id="nKwFnIR-qAnywtTfi2So-1" parent="nKwFnIR-qAnywtTfi2So-0"/>
                <mxCell id="nKwFnIR-qAnywtTfi2So-4" style="edgeStyle=none;rounded=0;orthogonalLoop=1;jettySize=auto;html=1;exitX=1;exitY=0.5;exitDx=0;exitDy=0;entryX=0;entryY=0.25;entryDx=0;entryDy=0;" parent="nKwFnIR-qAnywtTfi2So-1" source="nKwFnIR-qAnywtTfi2So-2" target="nKwFnIR-qAnywtTfi2So-3" edge="1">
                    <mxGeometry relative="1" as="geometry"/>
                </mxCell>
                <mxCell id="nKwFnIR-qAnywtTfi2So-9" style="edgeStyle=none;rounded=0;orthogonalLoop=1;jettySize=auto;html=1;exitX=0.5;exitY=1;exitDx=0;exitDy=0;" parent="nKwFnIR-qAnywtTfi2So-1" source="nKwFnIR-qAnywtTfi2So-2" edge="1">
                    <mxGeometry relative="1" as="geometry">
                        <mxPoint x="380" y="540" as="targetPoint"/>
                    </mxGeometry>
                </mxCell>
                <mxCell id="nKwFnIR-qAnywtTfi2So-2" value="msyql" style="shape=cylinder;whiteSpace=wrap;html=1;boundedLbl=1;backgroundOutline=1;fillColor=#6a00ff;strokeColor=#3700CC;fontColor=#ffffff;" parent="nKwFnIR-qAnywtTfi2So-1" vertex="1">
                    <mxGeometry x="130" y="240" width="60" height="80" as="geometry"/>
                </mxCell>
                <mxCell id="nKwFnIR-qAnywtTfi2So-5" style="edgeStyle=none;rounded=0;orthogonalLoop=1;jettySize=auto;html=1;exitX=1;exitY=0.5;exitDx=0;exitDy=0;" parent="nKwFnIR-qAnywtTfi2So-1" source="nKwFnIR-qAnywtTfi2So-3" target="nKwFnIR-qAnywtTfi2So-6" edge="1">
                    <mxGeometry relative="1" as="geometry">
                        <mxPoint x="480" y="280" as="targetPoint"/>
                    </mxGeometry>
                </mxCell>
                <mxCell id="nKwFnIR-qAnywtTfi2So-3" value="maxwell" style="rounded=1;whiteSpace=wrap;html=1;fillColor=#d80073;strokeColor=#A50040;fontColor=#ffffff;" parent="nKwFnIR-qAnywtTfi2So-1" vertex="1">
                    <mxGeometry x="270" y="260" width="120" height="60" as="geometry"/>
                </mxCell>
                <mxCell id="nKwFnIR-qAnywtTfi2So-8" style="edgeStyle=none;rounded=0;orthogonalLoop=1;jettySize=auto;html=1;exitX=0.55;exitY=0.95;exitDx=0;exitDy=0;exitPerimeter=0;" parent="nKwFnIR-qAnywtTfi2So-1" source="nKwFnIR-qAnywtTfi2So-6" target="nKwFnIR-qAnywtTfi2So-7" edge="1">
                    <mxGeometry relative="1" as="geometry"/>
                </mxCell>
                <mxCell id="nKwFnIR-qAnywtTfi2So-6" value="kafka" style="ellipse;shape=cloud;whiteSpace=wrap;html=1;" parent="nKwFnIR-qAnywtTfi2So-1" vertex="1">
                    <mxGeometry x="420" y="240" width="120" height="80" as="geometry"/>
                </mxCell>
                <mxCell id="nKwFnIR-qAnywtTfi2So-7" value="flink" style="ellipse;whiteSpace=wrap;html=1;" parent="nKwFnIR-qAnywtTfi2So-1" vertex="1">
                    <mxGeometry x="400" y="505" width="120" height="80" as="geometry"/>
                </mxCell>
                <mxCell id="nKwFnIR-qAnywtTfi2So-10" value="新的" style="text;html=1;align=center;verticalAlign=middle;resizable=0;points=[];autosize=1;" parent="nKwFnIR-qAnywtTfi2So-1" vertex="1">
                    <mxGeometry x="220" y="435" width="40" height="20" as="geometry"/>
                </mxCell>
                <mxCell id="nKwFnIR-qAnywtTfi2So-11" value="flink-cdc" style="text;html=1;align=center;verticalAlign=middle;resizable=0;points=[];autosize=1;" parent="nKwFnIR-qAnywtTfi2So-1" vertex="1">
                    <mxGeometry x="190" y="400" width="60" height="20" as="geometry"/>
                </mxCell>
            </root>
        </mxGraphModel>
    </diagram>
    <diagram id="l6eArbStEeK4anDsYDOb" name="第 3 页">
        <mxGraphModel dx="828" dy="635" grid="1" gridSize="10" guides="1" tooltips="1" connect="1" arrows="1" fold="1" page="1" pageScale="1" pageWidth="827" pageHeight="1169" math="0" shadow="0">
            <root>
                <mxCell id="Sfu6mydJP86P5AMTdyvm-0"/>
                <mxCell id="Sfu6mydJP86P5AMTdyvm-1" parent="Sfu6mydJP86P5AMTdyvm-0"/>
                <mxCell id="cm4o2pT7QC3H2QDrW3n9-0" style="edgeStyle=none;rounded=0;orthogonalLoop=1;jettySize=auto;html=1;exitX=1;exitY=0.5;exitDx=0;exitDy=0;entryX=0;entryY=0.25;entryDx=0;entryDy=0;" parent="Sfu6mydJP86P5AMTdyvm-1" source="cm4o2pT7QC3H2QDrW3n9-1" target="cm4o2pT7QC3H2QDrW3n9-3" edge="1">
                    <mxGeometry relative="1" as="geometry"/>
                </mxCell>
                <mxCell id="cm4o2pT7QC3H2QDrW3n9-1" value="msyql" style="shape=cylinder;whiteSpace=wrap;html=1;boundedLbl=1;backgroundOutline=1;fillColor=#6a00ff;strokeColor=#3700CC;fontColor=#ffffff;" parent="Sfu6mydJP86P5AMTdyvm-1" vertex="1">
                    <mxGeometry x="80" y="240" width="60" height="80" as="geometry"/>
                </mxCell>
                <mxCell id="cm4o2pT7QC3H2QDrW3n9-2" style="edgeStyle=none;rounded=0;orthogonalLoop=1;jettySize=auto;html=1;exitX=1;exitY=0.5;exitDx=0;exitDy=0;" parent="Sfu6mydJP86P5AMTdyvm-1" source="cm4o2pT7QC3H2QDrW3n9-3" target="cm4o2pT7QC3H2QDrW3n9-4" edge="1">
                    <mxGeometry relative="1" as="geometry">
                        <mxPoint x="480" y="280" as="targetPoint"/>
                    </mxGeometry>
                </mxCell>
                <mxCell id="cm4o2pT7QC3H2QDrW3n9-3" value="maxwell" style="rounded=1;whiteSpace=wrap;html=1;fillColor=#d80073;strokeColor=#A50040;fontColor=#ffffff;" parent="Sfu6mydJP86P5AMTdyvm-1" vertex="1">
                    <mxGeometry x="270" y="260" width="120" height="60" as="geometry"/>
                </mxCell>
                <mxCell id="cm4o2pT7QC3H2QDrW3n9-4" value="kafka" style="ellipse;shape=cloud;whiteSpace=wrap;html=1;" parent="Sfu6mydJP86P5AMTdyvm-1" vertex="1">
                    <mxGeometry x="510" y="240" width="120" height="80" as="geometry"/>
                </mxCell>
                <mxCell id="cm4o2pT7QC3H2QDrW3n9-6" style="edgeStyle=none;rounded=0;orthogonalLoop=1;jettySize=auto;html=1;exitX=0;exitY=0.5;exitDx=0;exitDy=0;" parent="Sfu6mydJP86P5AMTdyvm-1" source="cm4o2pT7QC3H2QDrW3n9-5" target="cm4o2pT7QC3H2QDrW3n9-1" edge="1">
                    <mxGeometry relative="1" as="geometry"/>
                </mxCell>
                <mxCell id="cm4o2pT7QC3H2QDrW3n9-8" style="edgeStyle=none;rounded=0;orthogonalLoop=1;jettySize=auto;html=1;exitX=1;exitY=0.5;exitDx=0;exitDy=0;entryX=0.5;entryY=0;entryDx=0;entryDy=0;" parent="Sfu6mydJP86P5AMTdyvm-1" source="cm4o2pT7QC3H2QDrW3n9-5" target="cm4o2pT7QC3H2QDrW3n9-3" edge="1">
                    <mxGeometry relative="1" as="geometry"/>
                </mxCell>
                <mxCell id="cm4o2pT7QC3H2QDrW3n9-5" value="bootstrap" style="ellipse;whiteSpace=wrap;html=1;fillColor=#a20025;strokeColor=#6F0000;fontColor=#ffffff;" parent="Sfu6mydJP86P5AMTdyvm-1" vertex="1">
                    <mxGeometry x="200" y="90" width="120" height="80" as="geometry"/>
                </mxCell>
                <mxCell id="cm4o2pT7QC3H2QDrW3n9-7" value="select * from ..." style="text;html=1;align=center;verticalAlign=middle;resizable=0;points=[];autosize=1;" parent="Sfu6mydJP86P5AMTdyvm-1" vertex="1">
                    <mxGeometry x="77" y="172" width="100" height="20" as="geometry"/>
                </mxCell>
            </root>
        </mxGraphModel>
    </diagram>
</mxfile>